Walking01.mot
version=1
nRows=21
nColumns=19
inDegrees=yes
endheader
time	ground_force1_vx	ground_force1_vy	ground_force1_vz	ground_force1_px	ground_force1_py	ground_force1_pz	ground_force2_vx	ground_force2_vy	ground_force2_vz	ground_force2_px	ground_force2_py	ground_force2_pz	ground_torque1_x	ground_torque1_y	ground_torque1_z	ground_torque2_x	ground_torque2_y	ground_torque2_z
      2.21000000	     34.18380352	    244.20266978	      7.44386515	     -0.26300944	      0.00000000	      0.05780890	    -35.40538031	    104.41208964	    -22.94018647	      0.25000189	      0.00000000	      0.04360842	      0.00000000	     -1.28276652	      0.00000000	      0.00000000	      0.11878317	      0.00000000
      2.21100000	     33.94383142	    242.81431899	      7.37570378	     -0.26298628	      0.00000000	      0.05797629	    -34.05411626	    108.18684965	    -22.50356092	      0.24885953	      0.00000000	      0.04356862	      0.00000000	     -1.28169347	      0.00000000	      0.00000000	      0.11930660	      0.00000000
      2.21200000	     33.69165438	    241.34400562	      7.31392005	     -0.26296338	      0.00000000	      0.05814549	    -32.47555758	    111.92494784	    -21.96880207	      0.24767085	      0.00000000	      0.04350189	      0.00000000	     -1.27943630	      0.00000000	      0.00000000	      0.11784041	      0.00000000
      2.21300000	     33.42694901	    239.78984696	      7.25766665	     -0.26294092	      0.00000000	      0.05831726	    -30.70898703	    115.62367170	    -21.35537241	      0.24645837	      0.00000000	      0.04341537	      0.00000000	     -1.27607523	      0.00000000	      0.00000000	      0.11442577	      0.00000000
      2.21400000	     33.14923374	    238.15040348	      7.20598663	     -0.26291913	      0.00000000	      0.05849235	    -28.80378176	    119.28392155	    -20.68770492	      0.24524498	      0.00000000	      0.04331557	      0.00000000	     -1.27170043	      0.00000000	      0.00000000	      0.10921695	      0.00000000
      2.21500000	     32.85781987	    236.42496129	      7.15784658	     -0.26289828	      0.00000000	      0.05867138	    -26.81563832	    122.90963790	    -19.99306706	      0.24405283	      0.00000000	      0.04320849	      0.00000000	     -1.26640630	      0.00000000	      0.00000000	      0.10249212	      0.00000000
      2.21600000	     32.55172424	    234.61368614	      7.11220020	     -0.26287862	      0.00000000	      0.05885479	    -24.80279870	    126.50724837	    -19.29916576	      0.24290246	      0.00000000	      0.04309979	      0.00000000	     -1.26028213	      0.00000000	      0.00000000	      0.09465619	      0.00000000
      2.21700000	     32.22956180	    232.71757897	      7.06809187	     -0.26286038	      0.00000000	      0.05904286	    -22.82298489	    130.08498821	    -18.63225550	      0.24181209	      0.00000000	      0.04299477	      0.00000000	     -1.25340609	      0.00000000	      0.00000000	      0.08623511	      0.00000000
      2.21800000	     31.88951985	    230.73831378	      7.02477290	     -0.26284378	      0.00000000	      0.05923578	    -20.93112217	    133.65205826	    -18.01593250	      0.24079723	      0.00000000	      0.04289828	      0.00000000	     -1.24584560	      0.00000000	      0.00000000	      0.07783916	      0.00000000
      2.21900000	     31.52945228	    228.67807889	      6.98178257	     -0.26282890	      0.00000000	      0.05943374	    -19.17770480	    137.21772623	    -17.47043358	      0.23987061	      0.00000000	      0.04281450	      0.00000000	     -1.23765803	      0.00000000	      0.00000000	      0.07009853	      0.00000000
      2.22000000	     31.14706299	    226.53946242	      6.93895879	     -0.26281570	      0.00000000	      0.05963686	    -17.60760534	    140.79051848	    -17.01220909	      0.23904231	      0.00000000	      0.04274681	      0.00000000	     -1.22888721	      0.00000000	      0.00000000	      0.06360307	      0.00000000
      2.22100000	     30.74011523	    224.32531192	      6.89638665	     -0.26280410	      0.00000000	      0.05984528	    -16.25920185	    144.37763804	    -16.65372055	      0.23831995	      0.00000000	      0.04269769	      0.00000000	     -1.21955880	      0.00000000	      0.00000000	      0.05886785	      0.00000000
      2.22200000	     30.30659926	    222.03854541	      6.85430861	     -0.26279398	      0.00000000	      0.06005912	    -15.16374211	    147.98456158	    -16.40351508	      0.23770875	      0.00000000	      0.04266870	      0.00000000	     -1.20968088	      0.00000000	      0.00000000	      0.05632193	      0.00000000
      2.22300000	     29.84485338	    219.68201735	      6.81302270	     -0.26278524	      0.00000000	      0.06027854	    -14.34487711	    151.61470592	    -16.26650774	      0.23721136	      0.00000000	      0.04266030	      0.00000000	     -1.19925062	      0.00000000	      0.00000000	      0.05630903	      0.00000000
      2.22400000	     29.35366193	    217.25847210	      6.77280119	     -0.26277777	      0.00000000	      0.06050368	    -13.81835427	    155.26926327	    -16.24434353	      0.23682789	      0.00000000	      0.04267185	      0.00000000	     -1.18826240	      0.00000000	      0.00000000	      0.05909257	      0.00000000
      2.22500000	     28.83232027	    214.77047684	      6.73384166	     -0.26277145	      0.00000000	      0.06073467	    -13.59190356	    158.94734123	    -16.33580652	      0.23655613	      0.00000000	      0.04270180	      0.00000000	     -1.17671297	      0.00000000	      0.00000000	      0.06485875	      0.00000000
      2.22600000	     28.28065763	    212.22029322	      6.69623990	     -0.26276612	      0.00000000	      0.06097157	    -13.66534382	    162.64637065	    -16.53727030	      0.23639191	      0.00000000	      0.04274809	      0.00000000	     -1.16460431	      0.00000000	      0.00000000	      0.07371030	      0.00000000
      2.22700000	     27.69902525	    209.60978221	      6.65998219	     -0.26276166	      0.00000000	      0.06121441	    -14.03095758	    166.36263807	    -16.84315900	      0.23632941	      0.00000000	      0.04280857	      0.00000000	     -1.15194653	      0.00000000	      0.00000000	      0.08565394	      0.00000000
      2.22800000	     27.08826790	    206.94045332	      6.62495738	     -0.26275797	      0.00000000	      0.06146316	    -14.67420082	    170.09178768	    -17.24642792	      0.23636135	      0.00000000	      0.04288129	      0.00000000	     -1.13876021	      0.00000000	      0.00000000	      0.10059541	      0.00000000
      2.22900000	     26.44967444	    204.21366148	      6.59096209	     -0.26275491	      0.00000000	      0.06171774	    -15.57475661	    173.82930372	    -17.73905140	      0.23647934	      0.00000000	      0.04296466	      0.00000000	     -1.12507381	      0.00000000	      0.00000000	      0.11834666	      0.00000000
      2.23000000	     25.78483791	    201.43085769	      6.55767939	     -0.26275238	      0.00000000	      0.06197803	    -16.70784119	    177.57112581	    -18.31240340	      0.23667427	      0.00000000	      0.04305763	      0.00000000	     -1.11091536	      0.00000000	      0.00000000	      0.13863461	      0.00000000
